<?xml version="1.0" encoding="UTF-8"?>
<svg data-source-hash="c3455bdc0f43" xmlns="http://www.w3.org/2000/svg" xmlns:xlink="http://www.w3.org/1999/xlink" width="116.214pt" height="149.912pt" viewBox="0 0 116.214 149.912" version="1.2">
<defs>
<g>
<symbol overflow="visible" id="glyph0-0">
<path style="stroke:none;" d=""/>
</symbol>
<symbol overflow="visible" id="glyph0-1">
<path style="stroke:none;" d="M 3.296875 -2.984375 C 3.359375 -3.25 3.59375 -4.15625 4.28125 -4.15625 C 4.328125 -4.15625 4.5625 -4.15625 4.78125 -4.03125 C 4.5 -3.96875 4.296875 -3.734375 4.296875 -3.484375 C 4.296875 -3.328125 4.40625 -3.140625 4.671875 -3.140625 C 4.890625 -3.140625 5.21875 -3.328125 5.21875 -3.71875 C 5.21875 -4.234375 4.625 -4.375 4.296875 -4.375 C 3.71875 -4.375 3.375 -3.84375 3.25 -3.625 C 3 -4.265625 2.46875 -4.375 2.1875 -4.375 C 1.15625 -4.375 0.59375 -3.09375 0.59375 -2.84375 C 0.59375 -2.75 0.6875 -2.75 0.71875 -2.75 C 0.796875 -2.75 0.828125 -2.765625 0.84375 -2.859375 C 1.171875 -3.90625 1.828125 -4.15625 2.171875 -4.15625 C 2.359375 -4.15625 2.703125 -4.0625 2.703125 -3.484375 C 2.703125 -3.1875 2.53125 -2.515625 2.171875 -1.140625 C 2 -0.53125 1.65625 -0.109375 1.21875 -0.109375 C 1.171875 -0.109375 0.9375 -0.109375 0.734375 -0.234375 C 0.984375 -0.28125 1.203125 -0.5 1.203125 -0.765625 C 1.203125 -1.03125 0.984375 -1.125 0.828125 -1.125 C 0.53125 -1.125 0.28125 -0.859375 0.28125 -0.546875 C 0.28125 -0.09375 0.78125 0.109375 1.21875 0.109375 C 1.875 0.109375 2.21875 -0.578125 2.25 -0.640625 C 2.375 -0.28125 2.734375 0.109375 3.328125 0.109375 C 4.34375 0.109375 4.90625 -1.171875 4.90625 -1.421875 C 4.90625 -1.515625 4.8125 -1.515625 4.78125 -1.515625 C 4.703125 -1.515625 4.671875 -1.46875 4.65625 -1.40625 C 4.328125 -0.34375 3.65625 -0.109375 3.34375 -0.109375 C 2.953125 -0.109375 2.796875 -0.421875 2.796875 -0.765625 C 2.796875 -0.984375 2.859375 -1.203125 2.96875 -1.625 Z M 3.296875 -2.984375 "/>
</symbol>
<symbol overflow="visible" id="glyph0-2">
<path style="stroke:none;" d="M 4.8125 -3.765625 C 4.84375 -3.90625 4.84375 -3.921875 4.84375 -4 C 4.84375 -4.171875 4.703125 -4.265625 4.5625 -4.265625 C 4.453125 -4.265625 4.296875 -4.203125 4.21875 -4.0625 C 4.1875 -4 4.109375 -3.703125 4.078125 -3.515625 C 4 -3.265625 3.9375 -3 3.875 -2.734375 L 3.4375 -0.953125 C 3.390625 -0.796875 2.96875 -0.109375 2.3125 -0.109375 C 1.8125 -0.109375 1.703125 -0.546875 1.703125 -0.90625 C 1.703125 -1.359375 1.875 -1.984375 2.203125 -2.84375 C 2.359375 -3.25 2.40625 -3.359375 2.40625 -3.5625 C 2.40625 -4 2.09375 -4.375 1.59375 -4.375 C 0.65625 -4.375 0.28125 -2.9375 0.28125 -2.84375 C 0.28125 -2.75 0.390625 -2.75 0.40625 -2.75 C 0.5 -2.75 0.515625 -2.765625 0.5625 -2.921875 C 0.828125 -3.859375 1.21875 -4.15625 1.5625 -4.15625 C 1.640625 -4.15625 1.8125 -4.15625 1.8125 -3.84375 C 1.8125 -3.59375 1.71875 -3.328125 1.640625 -3.140625 C 1.25 -2.09375 1.0625 -1.53125 1.0625 -1.0625 C 1.0625 -0.1875 1.6875 0.109375 2.28125 0.109375 C 2.65625 0.109375 3 -0.0625 3.28125 -0.34375 C 3.140625 0.171875 3.03125 0.65625 2.625 1.1875 C 2.375 1.515625 2 1.8125 1.546875 1.8125 C 1.40625 1.8125 0.953125 1.78125 0.796875 1.390625 C 0.953125 1.390625 1.078125 1.390625 1.21875 1.28125 C 1.3125 1.1875 1.421875 1.0625 1.421875 0.875 C 1.421875 0.5625 1.140625 0.53125 1.046875 0.53125 C 0.828125 0.53125 0.5 0.6875 0.5 1.171875 C 0.5 1.65625 0.9375 2.03125 1.546875 2.03125 C 2.5625 2.03125 3.578125 1.125 3.859375 0.015625 Z M 4.8125 -3.765625 "/>
</symbol>
<symbol overflow="visible" id="glyph1-0">
<path style="stroke:none;" d=""/>
</symbol>
<symbol overflow="visible" id="glyph1-1">
<path style="stroke:none;" d="M 4.546875 -3.171875 C 4.546875 -3.953125 4.5 -4.75 4.15625 -5.484375 C 3.703125 -6.421875 2.890625 -6.59375 2.46875 -6.59375 C 1.875 -6.59375 1.15625 -6.328125 0.75 -5.40625 C 0.4375 -4.734375 0.390625 -3.953125 0.390625 -3.171875 C 0.390625 -2.421875 0.421875 -1.53125 0.828125 -0.78125 C 1.25 0.015625 1.984375 0.21875 2.46875 0.21875 C 3 0.21875 3.75 0.015625 4.1875 -0.9375 C 4.5 -1.609375 4.546875 -2.390625 4.546875 -3.171875 Z M 2.46875 0 C 2.078125 0 1.5 -0.25 1.3125 -1.203125 C 1.203125 -1.796875 1.203125 -2.703125 1.203125 -3.28125 C 1.203125 -3.921875 1.203125 -4.5625 1.28125 -5.109375 C 1.46875 -6.28125 2.21875 -6.375 2.46875 -6.375 C 2.796875 -6.375 3.4375 -6.1875 3.625 -5.21875 C 3.734375 -4.65625 3.734375 -3.90625 3.734375 -3.28125 C 3.734375 -2.546875 3.734375 -1.875 3.625 -1.234375 C 3.46875 -0.296875 2.90625 0 2.46875 0 Z M 2.46875 0 "/>
</symbol>
<symbol overflow="visible" id="glyph1-2">
<path style="stroke:none;" d="M 2.90625 -6.328125 C 2.90625 -6.5625 2.90625 -6.59375 2.6875 -6.59375 C 2.0625 -5.953125 1.203125 -5.953125 0.875 -5.953125 L 0.875 -5.640625 C 1.078125 -5.640625 1.65625 -5.640625 2.171875 -5.90625 L 2.171875 -0.78125 C 2.171875 -0.421875 2.140625 -0.3125 1.25 -0.3125 L 0.9375 -0.3125 L 0.9375 0 C 1.28125 -0.03125 2.140625 -0.03125 2.546875 -0.03125 C 2.9375 -0.03125 3.796875 -0.03125 4.140625 0 L 4.140625 -0.3125 L 3.828125 -0.3125 C 2.9375 -0.3125 2.90625 -0.421875 2.90625 -0.78125 Z M 2.90625 -6.328125 "/>
</symbol>
</g>
<clipPath id="clip1">
  <path d="M 13 15.417969 L 101.003906 15.417969 L 101.003906 147.1875 L 13 147.1875 Z M 13 15.417969 "/>
</clipPath>
</defs>
<g id="surface1">
<path style="fill:none;stroke-width:0.3985;stroke-linecap:butt;stroke-linejoin:miter;stroke:rgb(0%,0%,0%);stroke-opacity:1;stroke-miterlimit:10;" d="M -40.820503 -0.0019034 L 55.08944 -0.0019034 " transform="matrix(0.993282,0,0,-0.993282,42.722054,91.439516)"/>
<path style=" stroke:none;fill-rule:nonzero;fill:rgb(0%,0%,0%);fill-opacity:1;" d="M 101.003906 91.441406 C 99.949219 91.242188 98.234375 90.648438 97.046875 89.957031 L 97.046875 92.925781 C 98.234375 92.230469 99.949219 91.636719 101.003906 91.441406 "/>
<g style="fill:rgb(0%,0%,0%);fill-opacity:1;">
  <use xlink:href="#glyph0-1" x="104.500225" y="93.569112"/>
</g>
<path style="fill:none;stroke-width:0.3985;stroke-linecap:butt;stroke-linejoin:miter;stroke:rgb(0%,0%,0%);stroke-opacity:1;stroke-miterlimit:10;" d="M 0.000606013 -56.125029 L 0.000606013 72.949115 " transform="matrix(0.993282,0,0,-0.993282,42.722054,91.439516)"/>
<path style=" stroke:none;fill-rule:nonzero;fill:rgb(0%,0%,0%);fill-opacity:1;" d="M 42.722656 15.417969 C 42.523438 16.472656 41.929688 18.1875 41.238281 19.375 L 44.207031 19.375 C 43.515625 18.1875 42.921875 16.472656 42.722656 15.417969 "/>
<g style="fill:rgb(0%,0%,0%);fill-opacity:1;">
  <use xlink:href="#glyph0-2" x="40.118662" y="9.998334"/>
</g>
<g style="fill:rgb(0%,0%,0%);fill-opacity:1;">
  <use xlink:href="#glyph1-1" x="34.27717" y="101.312739"/>
</g>
<g style="fill:rgb(0%,0%,0%);fill-opacity:1;">
  <use xlink:href="#glyph1-2" x="65.587407" y="101.312739"/>
</g>
<g style="fill:rgb(0%,0%,0%);fill-opacity:1;">
  <use xlink:href="#glyph1-2" x="34.27717" y="69.287339"/>
</g>
<path style="fill:none;stroke-width:0.3985;stroke-linecap:butt;stroke-linejoin:miter;stroke:rgb(0%,0%,0%);stroke-opacity:1;stroke-miterlimit:10;" d="M 25.511833 -1.531712 L 25.511833 1.531838 " transform="matrix(0.993282,0,0,-0.993282,42.722054,91.439516)"/>
<path style="fill:none;stroke-width:0.3985;stroke-linecap:butt;stroke-linejoin:miter;stroke:rgb(0%,0%,0%);stroke-opacity:1;stroke-miterlimit:10;" d="M -1.529202 25.513256 L 1.530414 25.513256 " transform="matrix(0.993282,0,0,-0.993282,42.722054,91.439516)"/>
<g clip-path="url(#clip1)" clip-rule="nonzero">
<path style="fill:none;stroke-width:0.79701;stroke-linecap:butt;stroke-linejoin:miter;stroke:rgb(0%,0%,0%);stroke-opacity:1;stroke-miterlimit:10;" d="M -17.857646 146.258007 L -17.30314 137.86569 L -16.744701 129.772257 L -16.186262 121.965908 L -15.631755 114.442711 L -15.073316 107.202666 L -14.514877 100.233976 L -13.960371 93.53664 L -13.401932 87.106725 L -12.843492 80.9403 L -12.288986 75.025565 L -11.730547 69.362521 L -11.172108 63.951168 L -10.617602 58.775775 L -10.059162 53.840274 L -9.500723 49.136802 L -8.946217 44.661424 L -8.387778 40.406275 L -7.829339 36.371357 L -7.274833 32.548802 L -6.716393 28.934679 L -6.161887 25.525054 L -5.603448 22.312063 L -5.045009 19.295706 L -4.490503 16.468116 L -3.932063 13.82143 L -3.373624 11.359579 L -2.819118 9.070765 L -2.260679 6.951056 L -1.70224 4.99652 L -1.147733 3.203222 L -0.589294 1.567232 L -0.0308553 0.0806827 L 0.523651 -1.256425 L 1.08209 -2.455889 L 1.640529 -3.51771 L 2.195036 -4.449753 L 2.753475 -5.252017 L 3.311914 -5.932369 L 3.86642 -6.494741 L 4.424859 -6.943065 L 4.979366 -7.285207 L 5.537805 -7.5251 L 6.096244 -7.666676 L 6.65075 -7.713868 L 7.209189 -7.670609 L 7.767628 -7.544763 L 8.322135 -7.340265 L 8.880574 -7.061045 L 9.439013 -6.711038 L 9.993519 -6.294175 L 10.551958 -5.818322 L 11.110397 -5.291344 L 11.664904 -4.709309 L 12.223343 -4.080082 L 12.781782 -3.41546 L 13.336288 -2.711513 L 13.894727 -1.976103 L 14.453166 -1.213166 L 15.007673 -0.426632 L 15.566112 0.3717 L 16.120618 1.185763 L 16.679057 2.007691 L 17.237496 2.833551 L 17.792003 3.655479 L 18.350442 4.469542 L 18.908881 5.275739 L 19.463387 6.062273 L 20.021826 6.829143 L 20.580265 7.568485 L 21.134772 8.280299 L 21.693211 8.952785 L 22.25165 9.589877 L 22.806156 10.175845 L 23.364595 10.718554 L 23.923034 11.202272 L 24.477541 11.627 L 25.03598 11.988806 L 25.594419 12.283756 L 26.148925 12.503986 L 26.707364 12.641629 L 27.261871 12.700619 L 27.82031 12.669158 L 28.378749 12.547245 L 28.933255 12.327015 L 29.491694 12.000604 L 30.050133 11.571943 L 30.60464 11.029234 L 31.163079 10.368546 L 31.721518 9.589877 L 32.276024 8.681431 L 32.834463 7.643206 L 33.392902 6.471271 L 33.947409 5.157759 L 34.505848 3.698739 L 35.064287 2.086344 L 35.618793 0.324508 L 36.177232 -1.6025 L 36.735672 -3.690747 L 37.290178 -5.9481 L 37.848617 -8.378489 L 38.403123 -10.989782 L 38.961562 -13.78591 L 39.520002 -16.770806 L 40.074508 -19.94447 L 40.632947 -23.318701 L 41.191386 -26.89743 L 41.745892 -30.684591 L 42.304332 -34.680183 L 42.862771 -38.892072 L 43.417277 -43.328123 L 43.975716 -47.992269 L 44.534155 -52.88451 L 45.088662 -58.016643 L 45.647101 -63.38867 L 46.20554 -69.004522 L 46.760046 -74.872065 L 47.318485 -80.995231 L 47.876924 -87.377954 L 48.431431 -94.028098 " transform="matrix(0.993282,0,0,-0.993282,42.722054,91.439516)"/>
</g>
</g>
</svg>
