<?xml version="1.0" encoding="UTF-8"?>
<svg data-source-hash="bc9941d6f0ea" xmlns="http://www.w3.org/2000/svg" xmlns:xlink="http://www.w3.org/1999/xlink" width="269.438pt" height="131.36pt" viewBox="0 0 269.438 131.36" version="1.2">
<defs>
<g>
<symbol overflow="visible" id="glyph0-0">
<path style="stroke:none;" d=""/>
</symbol>
<symbol overflow="visible" id="glyph0-1">
<path style="stroke:none;" d="M 5.703125 -1.703125 C 5.703125 -1.765625 5.65625 -1.8125 5.59375 -1.8125 C 5.484375 -1.8125 5.46875 -1.75 5.4375 -1.65625 C 5.109375 -0.609375 4.421875 -0.125 3.890625 -0.125 C 3.46875 -0.125 3.25 -0.421875 3.25 -0.921875 C 3.25 -1.171875 3.296875 -1.375 3.484375 -2.15625 L 3.90625 -3.765625 C 4.078125 -4.484375 4.484375 -5 5.03125 -5 C 5.03125 -5 5.390625 -5 5.640625 -4.84375 C 5.25 -4.78125 5.109375 -4.5 5.109375 -4.265625 C 5.109375 -3.984375 5.34375 -3.890625 5.5 -3.890625 C 5.859375 -3.890625 6.109375 -4.203125 6.109375 -4.515625 C 6.109375 -5.015625 5.546875 -5.25 5.046875 -5.25 C 4.3125 -5.25 3.90625 -4.53125 3.8125 -4.296875 C 3.53125 -5.203125 2.796875 -5.25 2.578125 -5.25 C 1.375 -5.25 0.71875 -3.6875 0.71875 -3.421875 C 0.71875 -3.375 0.765625 -3.3125 0.859375 -3.3125 C 0.953125 -3.3125 0.96875 -3.390625 1 -3.4375 C 1.40625 -4.75 2.203125 -5 2.546875 -5 C 3.078125 -5 3.1875 -4.5 3.1875 -4.21875 C 3.1875 -3.953125 3.109375 -3.6875 2.96875 -3.109375 L 2.5625 -1.484375 C 2.390625 -0.765625 2.046875 -0.125 1.421875 -0.125 C 1.359375 -0.125 1.0625 -0.125 0.8125 -0.28125 C 1.234375 -0.359375 1.328125 -0.71875 1.328125 -0.859375 C 1.328125 -1.09375 1.15625 -1.234375 0.921875 -1.234375 C 0.640625 -1.234375 0.328125 -0.984375 0.328125 -0.609375 C 0.328125 -0.109375 0.890625 0.125 1.40625 0.125 C 1.96875 0.125 2.375 -0.328125 2.625 -0.828125 C 2.8125 -0.125 3.40625 0.125 3.859375 0.125 C 5.0625 0.125 5.703125 -1.4375 5.703125 -1.703125 Z M 5.703125 -1.703125 "/>
</symbol>
<symbol overflow="visible" id="glyph0-2">
<path style="stroke:none;" d="M 5.640625 -4.625 C 5.65625 -4.6875 5.6875 -4.75 5.6875 -4.828125 C 5.6875 -5 5.546875 -5.125 5.359375 -5.125 C 5.25 -5.125 5 -5.078125 4.90625 -4.71875 L 4.03125 -1.21875 C 3.96875 -1.015625 3.96875 -0.984375 3.875 -0.859375 C 3.640625 -0.515625 3.25 -0.125 2.671875 -0.125 C 2.015625 -0.125 1.953125 -0.765625 1.953125 -1.09375 C 1.953125 -1.765625 2.265625 -2.6875 2.59375 -3.546875 C 2.71875 -3.890625 2.796875 -4.0625 2.796875 -4.296875 C 2.796875 -4.796875 2.4375 -5.25 1.859375 -5.25 C 0.765625 -5.25 0.328125 -3.515625 0.328125 -3.421875 C 0.328125 -3.375 0.375 -3.3125 0.453125 -3.3125 C 0.5625 -3.3125 0.578125 -3.359375 0.625 -3.53125 C 0.90625 -4.53125 1.359375 -5 1.8125 -5 C 1.921875 -5 2.125 -5 2.125 -4.609375 C 2.125 -4.296875 2 -3.953125 1.8125 -3.5 C 1.234375 -1.953125 1.234375 -1.5625 1.234375 -1.265625 C 1.234375 -0.140625 2.046875 0.125 2.640625 0.125 C 2.984375 0.125 3.40625 0.015625 3.828125 -0.421875 L 3.84375 -0.421875 C 3.65625 0.28125 3.546875 0.75 3.125 1.328125 C 2.8125 1.78125 2.34375 2.1875 1.765625 2.1875 C 1.609375 2.1875 1.046875 2.171875 0.875 1.609375 C 0.90625 1.625 0.984375 1.625 0.984375 1.625 C 1.34375 1.625 1.578125 1.3125 1.578125 1.046875 C 1.578125 0.765625 1.359375 0.671875 1.171875 0.671875 C 0.984375 0.671875 0.578125 0.828125 0.578125 1.40625 C 0.578125 2.015625 1.078125 2.421875 1.765625 2.421875 C 2.953125 2.421875 4.15625 1.328125 4.484375 0.015625 Z M 5.640625 -4.625 "/>
</symbol>
<symbol overflow="visible" id="glyph0-3">
<path style="stroke:none;" d="M 6.578125 -4.859375 C 6.578125 -5.125 6.34375 -5.125 6.140625 -5.125 L 2.21875 -5.125 C 1.953125 -5.125 1.546875 -5.125 1 -4.546875 C 0.6875 -4.203125 0.3125 -3.5625 0.3125 -3.5 C 0.3125 -3.421875 0.375 -3.40625 0.4375 -3.40625 C 0.515625 -3.40625 0.53125 -3.4375 0.59375 -3.5 C 1.21875 -4.484375 1.828125 -4.484375 2.125 -4.484375 L 2.8125 -4.484375 C 2.546875 -3.59375 2.25 -2.5625 1.265625 -0.46875 C 1.171875 -0.28125 1.171875 -0.265625 1.171875 -0.1875 C 1.171875 0.0625 1.390625 0.125 1.5 0.125 C 1.84375 0.125 1.9375 -0.1875 2.078125 -0.6875 C 2.265625 -1.296875 2.265625 -1.3125 2.390625 -1.796875 L 3.078125 -4.484375 L 4.421875 -4.484375 C 4.109375 -3.15625 3.90625 -2.28125 3.90625 -1.328125 C 3.90625 -1.171875 3.90625 0.125 4.390625 0.125 C 4.640625 0.125 4.84375 -0.109375 4.84375 -0.3125 C 4.84375 -0.375 4.84375 -0.390625 4.765625 -0.578125 C 4.453125 -1.390625 4.453125 -2.40625 4.453125 -2.5 C 4.453125 -2.5625 4.453125 -3.40625 4.703125 -4.484375 L 6.03125 -4.484375 C 6.1875 -4.484375 6.578125 -4.484375 6.578125 -4.859375 Z M 6.578125 -4.859375 "/>
</symbol>
<symbol overflow="visible" id="glyph1-0">
<path style="stroke:none;" d=""/>
</symbol>
<symbol overflow="visible" id="glyph1-1">
<path style="stroke:none;" d="M 5.328125 -3.8125 C 5.328125 -4.796875 5.265625 -5.75 4.84375 -6.65625 C 4.359375 -7.640625 3.5 -7.90625 2.90625 -7.90625 C 2.21875 -7.90625 1.375 -7.5625 0.9375 -6.578125 C 0.609375 -5.828125 0.484375 -5.09375 0.484375 -3.8125 C 0.484375 -2.65625 0.578125 -1.78125 1 -0.9375 C 1.46875 -0.03125 2.28125 0.25 2.90625 0.25 C 3.9375 0.25 4.53125 -0.375 4.875 -1.0625 C 5.296875 -1.953125 5.328125 -3.109375 5.328125 -3.8125 Z M 4.421875 -3.953125 C 4.421875 -3.15625 4.421875 -2.25 4.296875 -1.515625 C 4.0625 -0.21875 3.3125 0.015625 2.90625 0.015625 C 2.515625 0.015625 1.75 -0.203125 1.515625 -1.5 C 1.390625 -2.21875 1.390625 -3.109375 1.390625 -3.953125 C 1.390625 -4.921875 1.390625 -5.796875 1.578125 -6.5 C 1.78125 -7.296875 2.390625 -7.671875 2.90625 -7.671875 C 3.359375 -7.671875 4.046875 -7.390625 4.265625 -6.375 C 4.421875 -5.703125 4.421875 -4.75 4.421875 -3.953125 Z M 4.421875 -3.953125 "/>
</symbol>
<symbol overflow="visible" id="glyph1-2">
<path style="stroke:none;" d="M 4.875 0 L 4.875 -0.34375 L 4.5 -0.34375 C 3.453125 -0.34375 3.421875 -0.484375 3.421875 -0.921875 L 3.421875 -7.625 C 3.421875 -7.890625 3.421875 -7.90625 3.1875 -7.90625 C 2.90625 -7.59375 2.3125 -7.140625 1.078125 -7.140625 L 1.078125 -6.796875 C 1.359375 -6.796875 1.953125 -6.796875 2.609375 -7.109375 L 2.609375 -0.921875 C 2.609375 -0.484375 2.5625 -0.34375 1.515625 -0.34375 L 1.15625 -0.34375 L 1.15625 0 C 1.46875 -0.03125 2.625 -0.03125 3.015625 -0.03125 C 3.40625 -0.03125 4.546875 -0.03125 4.875 0 Z M 4.875 0 "/>
</symbol>
<symbol overflow="visible" id="glyph1-3">
<path style="stroke:none;" d="M 5.234375 -2 L 4.96875 -2 C 4.9375 -1.796875 4.84375 -1.140625 4.71875 -0.953125 C 4.640625 -0.84375 3.953125 -0.84375 3.609375 -0.84375 L 1.40625 -0.84375 C 1.71875 -1.125 2.453125 -1.875 2.765625 -2.171875 C 4.5625 -3.828125 5.234375 -4.453125 5.234375 -5.625 C 5.234375 -6.984375 4.15625 -7.90625 2.765625 -7.90625 C 1.390625 -7.90625 0.578125 -6.734375 0.578125 -5.703125 C 0.578125 -5.09375 1.109375 -5.09375 1.140625 -5.09375 C 1.390625 -5.09375 1.703125 -5.28125 1.703125 -5.65625 C 1.703125 -6 1.46875 -6.21875 1.140625 -6.21875 C 1.03125 -6.21875 1.015625 -6.21875 0.96875 -6.203125 C 1.203125 -7.015625 1.84375 -7.5625 2.609375 -7.5625 C 3.625 -7.5625 4.25 -6.71875 4.25 -5.625 C 4.25 -4.609375 3.65625 -3.734375 2.984375 -2.96875 L 0.578125 -0.28125 L 0.578125 0 L 4.921875 0 Z M 5.234375 -2 "/>
</symbol>
<symbol overflow="visible" id="glyph2-0">
<path style="stroke:none;" d=""/>
</symbol>
<symbol overflow="visible" id="glyph2-1">
<path style="stroke:none;" d="M 8.25 -2.96875 C 8.25 -3.203125 8.03125 -3.203125 7.859375 -3.203125 L 1.375 -3.203125 C 1.21875 -3.203125 0.984375 -3.203125 0.984375 -2.96875 C 0.984375 -2.734375 1.21875 -2.734375 1.375 -2.734375 L 7.859375 -2.734375 C 8.03125 -2.734375 8.25 -2.734375 8.25 -2.96875 Z M 8.25 -2.96875 "/>
</symbol>
</g>
</defs>
<g id="surface1">
<path style="fill:none;stroke-width:0.3985;stroke-linecap:butt;stroke-linejoin:miter;stroke:rgb(0%,0%,0%);stroke-opacity:1;stroke-miterlimit:10;" d="M -119.057113 0.00153563 L 123.972776 0.00153563 " transform="matrix(0.995152,0,0,-0.995152,123.015023,75.782778)"/>
<path style=" stroke:none;fill-rule:nonzero;fill:rgb(0%,0%,0%);fill-opacity:1;" d="M 249.957031 75.78125 C 248.898438 75.585938 247.179688 74.988281 245.992188 74.296875 L 245.992188 77.269531 C 247.179688 76.574219 248.898438 75.980469 249.957031 75.78125 "/>
<g style="fill:rgb(0%,0%,0%);fill-opacity:1;">
  <use xlink:href="#glyph0-1" x="254.036672" y="78.344298"/>
</g>
<path style="fill:none;stroke-width:0.3985;stroke-linecap:butt;stroke-linejoin:miter;stroke:rgb(0%,0%,0%);stroke-opacity:1;stroke-miterlimit:10;" d="M 0.000604903 -51.023201 L 0.000604903 53.106671 " transform="matrix(0.995152,0,0,-0.995152,123.015023,75.782778)"/>
<path style=" stroke:none;fill-rule:nonzero;fill:rgb(0%,0%,0%);fill-opacity:1;" d="M 123.015625 19.363281 C 122.816406 20.421875 122.222656 22.140625 121.527344 23.328125 L 124.503906 23.328125 C 123.808594 22.140625 123.214844 20.421875 123.015625 19.363281 "/>
<g style="fill:rgb(0%,0%,0%);fill-opacity:1;">
  <use xlink:href="#glyph0-2" x="119.961898" y="12.970805"/>
</g>
<path style="fill:none;stroke-width:0.3985;stroke-linecap:butt;stroke-linejoin:miter;stroke:rgb(0%,0%,0%);stroke-opacity:1;stroke-miterlimit:10;" d="M -2.268208 -28.346849 L 2.269418 -28.346849 " transform="matrix(0.995152,0,0,-0.995152,123.015023,75.782778)"/>
<path style="fill:none;stroke-width:0.3985;stroke-linecap:butt;stroke-linejoin:miter;stroke:rgb(0%,0%,0%);stroke-opacity:1;stroke-miterlimit:10;" d="M -2.268208 28.345995 L 2.269418 28.345995 " transform="matrix(0.995152,0,0,-0.995152,123.015023,75.782778)"/>
<g style="fill:rgb(0%,0%,0%);fill-opacity:1;">
  <use xlink:href="#glyph1-1" x="113.109285" y="87.355395"/>
</g>
<g style="fill:rgb(0%,0%,0%);fill-opacity:1;">
  <use xlink:href="#glyph1-2" x="113.109285" y="51.319964"/>
</g>
<path style="fill:none;stroke-width:0.3985;stroke-linecap:butt;stroke-linejoin:miter;stroke:rgb(0%,0%,0%);stroke-opacity:1;stroke-miterlimit:10;" d="M -89.05226 -2.267277 L -89.05226 2.266423 " transform="matrix(0.995152,0,0,-0.995152,123.015023,75.782778)"/>
<path style="fill:none;stroke-width:0.3985;stroke-linecap:butt;stroke-linejoin:miter;stroke:rgb(0%,0%,0%);stroke-opacity:1;stroke-miterlimit:10;" d="M -44.52779 -2.267277 L -44.52779 2.266423 " transform="matrix(0.995152,0,0,-0.995152,123.015023,75.782778)"/>
<path style="fill:none;stroke-width:0.3985;stroke-linecap:butt;stroke-linejoin:miter;stroke:rgb(0%,0%,0%);stroke-opacity:1;stroke-miterlimit:10;" d="M 44.529 -2.267277 L 44.529 2.266423 " transform="matrix(0.995152,0,0,-0.995152,123.015023,75.782778)"/>
<path style="fill:none;stroke-width:0.3985;stroke-linecap:butt;stroke-linejoin:miter;stroke:rgb(0%,0%,0%);stroke-opacity:1;stroke-miterlimit:10;" d="M 89.05347 -2.267277 L 89.05347 2.266423 " transform="matrix(0.995152,0,0,-0.995152,123.015023,75.782778)"/>
<g style="fill:rgb(0%,0%,0%);fill-opacity:1;">
  <use xlink:href="#glyph2-1" x="26.25047" y="89.06009"/>
</g>
<g style="fill:rgb(0%,0%,0%);fill-opacity:1;">
  <use xlink:href="#glyph0-3" x="35.503389" y="89.06009"/>
</g>
<g style="fill:rgb(0%,0%,0%);fill-opacity:1;">
  <use xlink:href="#glyph2-1" x="69.370385" y="95.291728"/>
</g>
<g style="fill:rgb(0%,0%,0%);fill-opacity:1;">
  <use xlink:href="#glyph0-3" x="79.813505" y="87.242943"/>
</g>
<path style="fill:none;stroke-width:0.398;stroke-linecap:butt;stroke-linejoin:miter;stroke:rgb(0%,0%,0%);stroke-opacity:1;stroke-miterlimit:10;" d="M -0.00101035 0.000818324 L 7.068422 0.000818324 " transform="matrix(0.995152,0,0,-0.995152,79.813505,92.317221)"/>
<g style="fill:rgb(0%,0%,0%);fill-opacity:1;">
  <use xlink:href="#glyph1-3" x="80.418558" y="103.451971"/>
</g>
<g style="fill:rgb(0%,0%,0%);fill-opacity:1;">
  <use xlink:href="#glyph0-3" x="163.808274" y="87.242943"/>
</g>
<path style="fill:none;stroke-width:0.398;stroke-linecap:butt;stroke-linejoin:miter;stroke:rgb(0%,0%,0%);stroke-opacity:1;stroke-miterlimit:10;" d="M 0.000321369 0.000818324 L 7.069754 0.000818324 " transform="matrix(0.995152,0,0,-0.995152,163.808274,92.317221)"/>
<g style="fill:rgb(0%,0%,0%);fill-opacity:1;">
  <use xlink:href="#glyph1-3" x="164.413326" y="103.451971"/>
</g>
<g style="fill:rgb(0%,0%,0%);fill-opacity:1;">
  <use xlink:href="#glyph0-3" x="208.11839" y="87.242943"/>
</g>
</g>
</svg>
