<?xml version="1.0" encoding="UTF-8"?>
<svg data-source-hash="3e44a8f78380" xmlns="http://www.w3.org/2000/svg" xmlns:xlink="http://www.w3.org/1999/xlink" width="218.798pt" height="183.928pt" viewBox="0 0 218.798 183.928" version="1.2">
<defs>
<g>
<symbol overflow="visible" id="glyph0-0">
<path style="stroke:none;" d=""/>
</symbol>
<symbol overflow="visible" id="glyph0-1">
<path style="stroke:none;" d="M 3.328125 -3 C 3.390625 -3.265625 3.609375 -4.1875 4.3125 -4.1875 C 4.359375 -4.1875 4.59375 -4.1875 4.8125 -4.046875 C 4.53125 -4 4.328125 -3.75 4.328125 -3.515625 C 4.328125 -3.359375 4.4375 -3.171875 4.703125 -3.171875 C 4.921875 -3.171875 5.25 -3.34375 5.25 -3.75 C 5.25 -4.265625 4.65625 -4.40625 4.3125 -4.40625 C 3.75 -4.40625 3.390625 -3.875 3.28125 -3.640625 C 3.03125 -4.296875 2.484375 -4.40625 2.203125 -4.40625 C 1.171875 -4.40625 0.59375 -3.109375 0.59375 -2.859375 C 0.59375 -2.765625 0.703125 -2.765625 0.71875 -2.765625 C 0.796875 -2.765625 0.828125 -2.78125 0.84375 -2.875 C 1.1875 -3.9375 1.84375 -4.1875 2.1875 -4.1875 C 2.375 -4.1875 2.71875 -4.09375 2.71875 -3.515625 C 2.71875 -3.203125 2.546875 -2.53125 2.1875 -1.140625 C 2.015625 -0.53125 1.671875 -0.109375 1.234375 -0.109375 C 1.171875 -0.109375 0.953125 -0.109375 0.734375 -0.234375 C 0.984375 -0.28125 1.203125 -0.5 1.203125 -0.78125 C 1.203125 -1.046875 0.984375 -1.125 0.84375 -1.125 C 0.53125 -1.125 0.28125 -0.859375 0.28125 -0.546875 C 0.28125 -0.09375 0.78125 0.109375 1.21875 0.109375 C 1.875 0.109375 2.234375 -0.59375 2.265625 -0.640625 C 2.390625 -0.28125 2.75 0.109375 3.34375 0.109375 C 4.375 0.109375 4.9375 -1.171875 4.9375 -1.421875 C 4.9375 -1.515625 4.84375 -1.515625 4.8125 -1.515625 C 4.734375 -1.515625 4.703125 -1.484375 4.6875 -1.40625 C 4.359375 -0.34375 3.6875 -0.109375 3.359375 -0.109375 C 2.96875 -0.109375 2.8125 -0.421875 2.8125 -0.765625 C 2.8125 -0.984375 2.875 -1.203125 2.984375 -1.640625 Z M 3.328125 -3 "/>
</symbol>
<symbol overflow="visible" id="glyph0-2">
<path style="stroke:none;" d="M 4.84375 -3.796875 C 4.875 -3.9375 4.875 -3.953125 4.875 -4.015625 C 4.875 -4.203125 4.734375 -4.296875 4.59375 -4.296875 C 4.484375 -4.296875 4.328125 -4.234375 4.234375 -4.078125 C 4.21875 -4.03125 4.140625 -3.71875 4.09375 -3.546875 C 4.03125 -3.28125 3.96875 -3.015625 3.90625 -2.75 L 3.453125 -0.953125 C 3.40625 -0.8125 2.984375 -0.109375 2.328125 -0.109375 C 1.828125 -0.109375 1.71875 -0.546875 1.71875 -0.921875 C 1.71875 -1.375 1.875 -1.984375 2.21875 -2.859375 C 2.375 -3.28125 2.421875 -3.390625 2.421875 -3.578125 C 2.421875 -4.03125 2.09375 -4.40625 1.609375 -4.40625 C 0.65625 -4.40625 0.28125 -2.953125 0.28125 -2.859375 C 0.28125 -2.765625 0.390625 -2.765625 0.40625 -2.765625 C 0.5 -2.765625 0.515625 -2.78125 0.5625 -2.953125 C 0.84375 -3.875 1.234375 -4.1875 1.578125 -4.1875 C 1.65625 -4.1875 1.828125 -4.1875 1.828125 -3.859375 C 1.828125 -3.609375 1.71875 -3.359375 1.65625 -3.171875 C 1.25 -2.109375 1.078125 -1.546875 1.078125 -1.078125 C 1.078125 -0.1875 1.703125 0.109375 2.296875 0.109375 C 2.671875 0.109375 3.015625 -0.0625 3.296875 -0.34375 C 3.171875 0.171875 3.046875 0.671875 2.640625 1.1875 C 2.390625 1.53125 2.015625 1.828125 1.546875 1.828125 C 1.40625 1.828125 0.96875 1.796875 0.796875 1.40625 C 0.953125 1.40625 1.078125 1.40625 1.21875 1.28125 C 1.328125 1.1875 1.421875 1.0625 1.421875 0.875 C 1.421875 0.5625 1.15625 0.53125 1.0625 0.53125 C 0.828125 0.53125 0.5 0.6875 0.5 1.171875 C 0.5 1.671875 0.9375 2.046875 1.546875 2.046875 C 2.578125 2.046875 3.609375 1.140625 3.875 0.015625 Z M 4.84375 -3.796875 "/>
</symbol>
<symbol overflow="visible" id="glyph0-3">
<path style="stroke:none;" d="M 1.78125 -1.140625 C 1.390625 -0.484375 1 -0.34375 0.5625 -0.3125 C 0.4375 -0.296875 0.34375 -0.296875 0.34375 -0.109375 C 0.34375 -0.046875 0.390625 0 0.484375 0 C 0.75 0 1.0625 -0.03125 1.328125 -0.03125 C 1.65625 -0.03125 2.015625 0 2.328125 0 C 2.390625 0 2.515625 0 2.515625 -0.1875 C 2.515625 -0.296875 2.421875 -0.3125 2.359375 -0.3125 C 2.125 -0.328125 1.890625 -0.40625 1.890625 -0.65625 C 1.890625 -0.78125 1.953125 -0.890625 2.03125 -1.03125 L 2.78125 -2.296875 L 5.28125 -2.296875 C 5.3125 -2.09375 5.4375 -0.734375 5.4375 -0.640625 C 5.4375 -0.34375 4.921875 -0.3125 4.734375 -0.3125 C 4.59375 -0.3125 4.484375 -0.3125 4.484375 -0.109375 C 4.484375 0 4.609375 0 4.625 0 C 5.03125 0 5.46875 -0.03125 5.875 -0.03125 C 6.125 -0.03125 6.75 0 7 0 C 7.0625 0 7.171875 0 7.171875 -0.203125 C 7.171875 -0.3125 7.078125 -0.3125 6.953125 -0.3125 C 6.328125 -0.3125 6.328125 -0.375 6.296875 -0.671875 L 5.6875 -6.890625 C 5.671875 -7.09375 5.671875 -7.125 5.5 -7.125 C 5.34375 -7.125 5.3125 -7.0625 5.25 -6.953125 Z M 2.96875 -2.609375 L 4.9375 -5.890625 L 5.25 -2.609375 Z M 2.96875 -2.609375 "/>
</symbol>
<symbol overflow="visible" id="glyph0-4">
<path style="stroke:none;" d="M 2.015625 -0.015625 C 2.015625 -0.671875 1.765625 -1.0625 1.390625 -1.0625 C 1.0625 -1.0625 0.859375 -0.8125 0.859375 -0.53125 C 0.859375 -0.265625 1.0625 0 1.390625 0 C 1.5 0 1.625 -0.046875 1.734375 -0.125 C 1.765625 -0.15625 1.765625 -0.15625 1.78125 -0.15625 C 1.796875 -0.15625 1.796875 -0.15625 1.796875 -0.015625 C 1.796875 0.734375 1.453125 1.328125 1.125 1.65625 C 1.015625 1.765625 1.015625 1.78125 1.015625 1.8125 C 1.015625 1.875 1.0625 1.921875 1.109375 1.921875 C 1.21875 1.921875 2.015625 1.15625 2.015625 -0.015625 Z M 2.015625 -0.015625 "/>
</symbol>
<symbol overflow="visible" id="glyph0-5">
<path style="stroke:none;" d="M 7.5625 -6.921875 C 7.5625 -6.953125 7.546875 -7.015625 7.453125 -7.015625 C 7.421875 -7.015625 7.421875 -7 7.3125 -6.890625 L 6.609375 -6.125 C 6.515625 -6.265625 6.0625 -7.015625 4.953125 -7.015625 C 2.734375 -7.015625 0.5 -4.8125 0.5 -2.515625 C 0.5 -0.859375 1.671875 0.21875 3.1875 0.21875 C 4.0625 0.21875 4.8125 -0.171875 5.34375 -0.640625 C 6.265625 -1.453125 6.4375 -2.359375 6.4375 -2.390625 C 6.4375 -2.484375 6.34375 -2.484375 6.3125 -2.484375 C 6.265625 -2.484375 6.203125 -2.46875 6.1875 -2.390625 C 6.09375 -2.09375 5.875 -1.390625 5.1875 -0.8125 C 4.5 -0.265625 3.875 -0.09375 3.359375 -0.09375 C 2.453125 -0.09375 1.40625 -0.609375 1.40625 -2.15625 C 1.40625 -2.734375 1.609375 -4.34375 2.609375 -5.5 C 3.21875 -6.203125 4.15625 -6.703125 5.03125 -6.703125 C 6.046875 -6.703125 6.640625 -5.9375 6.640625 -4.78125 C 6.640625 -4.390625 6.609375 -4.375 6.609375 -4.28125 C 6.609375 -4.1875 6.71875 -4.1875 6.765625 -4.1875 C 6.890625 -4.1875 6.890625 -4.203125 6.9375 -4.375 Z M 7.5625 -6.921875 "/>
</symbol>
<symbol overflow="visible" id="glyph0-6">
<path style="stroke:none;" d="M 1.59375 -0.78125 C 1.5 -0.390625 1.46875 -0.3125 0.6875 -0.3125 C 0.515625 -0.3125 0.421875 -0.3125 0.421875 -0.109375 C 0.421875 0 0.5 0 0.6875 0 L 4.234375 0 C 5.8125 0 6.984375 -1.171875 6.984375 -2.15625 C 6.984375 -2.859375 6.40625 -3.4375 5.4375 -3.546875 C 6.484375 -3.75 7.53125 -4.484375 7.53125 -5.421875 C 7.53125 -6.15625 6.875 -6.796875 5.671875 -6.796875 L 2.328125 -6.796875 C 2.140625 -6.796875 2.046875 -6.796875 2.046875 -6.59375 C 2.046875 -6.484375 2.125 -6.484375 2.3125 -6.484375 C 2.34375 -6.484375 2.53125 -6.484375 2.703125 -6.46875 C 2.875 -6.453125 2.96875 -6.4375 2.96875 -6.3125 C 2.96875 -6.265625 2.953125 -6.234375 2.921875 -6.125 Z M 3.09375 -3.640625 L 3.71875 -6.109375 C 3.796875 -6.453125 3.828125 -6.484375 4.25 -6.484375 L 5.53125 -6.484375 C 6.40625 -6.484375 6.625 -5.90625 6.625 -5.46875 C 6.625 -4.59375 5.765625 -3.640625 4.546875 -3.640625 Z M 2.640625 -0.3125 C 2.515625 -0.3125 2.484375 -0.3125 2.421875 -0.3125 C 2.328125 -0.328125 2.296875 -0.34375 2.296875 -0.421875 C 2.296875 -0.453125 2.296875 -0.46875 2.34375 -0.640625 L 3.03125 -3.421875 L 4.921875 -3.421875 C 5.875 -3.421875 6.0625 -2.6875 6.0625 -2.265625 C 6.0625 -1.28125 5.171875 -0.3125 4 -0.3125 Z M 2.640625 -0.3125 "/>
</symbol>
<symbol overflow="visible" id="glyph1-0">
<path style="stroke:none;" d=""/>
</symbol>
<symbol overflow="visible" id="glyph1-1">
<path style="stroke:none;" d="M 2.921875 -6.375 C 2.921875 -6.609375 2.921875 -6.625 2.703125 -6.625 C 2.078125 -5.984375 1.203125 -5.984375 0.890625 -5.984375 L 0.890625 -5.6875 C 1.078125 -5.6875 1.671875 -5.6875 2.1875 -5.9375 L 2.1875 -0.78125 C 2.1875 -0.421875 2.15625 -0.3125 1.265625 -0.3125 L 0.953125 -0.3125 L 0.953125 0 C 1.296875 -0.03125 2.15625 -0.03125 2.5625 -0.03125 C 2.953125 -0.03125 3.828125 -0.03125 4.171875 0 L 4.171875 -0.3125 L 3.859375 -0.3125 C 2.953125 -0.3125 2.921875 -0.421875 2.921875 -0.78125 Z M 2.921875 -6.375 "/>
</symbol>
<symbol overflow="visible" id="glyph1-2">
<path style="stroke:none;" d="M 4.578125 -3.1875 C 4.578125 -3.984375 4.53125 -4.78125 4.1875 -5.515625 C 3.71875 -6.46875 2.90625 -6.625 2.484375 -6.625 C 1.890625 -6.625 1.171875 -6.375 0.75 -5.4375 C 0.4375 -4.75 0.390625 -3.984375 0.390625 -3.1875 C 0.390625 -2.4375 0.421875 -1.546875 0.84375 -0.78125 C 1.265625 0.015625 1.984375 0.21875 2.484375 0.21875 C 3.015625 0.21875 3.765625 0.015625 4.203125 -0.9375 C 4.53125 -1.625 4.578125 -2.40625 4.578125 -3.1875 Z M 2.484375 0 C 2.09375 0 1.5 -0.25 1.328125 -1.203125 C 1.21875 -1.796875 1.21875 -2.71875 1.21875 -3.296875 C 1.21875 -3.9375 1.21875 -4.59375 1.296875 -5.140625 C 1.484375 -6.3125 2.234375 -6.40625 2.484375 -6.40625 C 2.8125 -6.40625 3.46875 -6.234375 3.65625 -5.25 C 3.75 -4.6875 3.75 -3.9375 3.75 -3.296875 C 3.75 -2.5625 3.75 -1.875 3.640625 -1.25 C 3.5 -0.296875 2.921875 0 2.484375 0 Z M 2.484375 0 "/>
</symbol>
<symbol overflow="visible" id="glyph1-3">
<path style="stroke:none;" d="M 3.296875 2.390625 C 3.296875 2.359375 3.296875 2.34375 3.125 2.171875 C 1.875 0.921875 1.5625 -0.96875 1.5625 -2.484375 C 1.5625 -4.21875 1.9375 -5.953125 3.171875 -7.203125 C 3.296875 -7.3125 3.296875 -7.328125 3.296875 -7.359375 C 3.296875 -7.4375 3.25 -7.46875 3.1875 -7.46875 C 3.09375 -7.46875 2.203125 -6.78125 1.609375 -5.53125 C 1.109375 -4.421875 0.984375 -3.328125 0.984375 -2.484375 C 0.984375 -1.71875 1.09375 -0.5 1.640625 0.609375 C 2.234375 1.84375 3.09375 2.484375 3.1875 2.484375 C 3.25 2.484375 3.296875 2.453125 3.296875 2.390625 Z M 3.296875 2.390625 "/>
</symbol>
<symbol overflow="visible" id="glyph1-4">
<path style="stroke:none;" d="M 2.875 -2.484375 C 2.875 -3.265625 2.765625 -4.46875 2.21875 -5.59375 C 1.625 -6.8125 0.765625 -7.46875 0.671875 -7.46875 C 0.609375 -7.46875 0.5625 -7.421875 0.5625 -7.359375 C 0.5625 -7.328125 0.5625 -7.3125 0.75 -7.140625 C 1.734375 -6.15625 2.296875 -4.5625 2.296875 -2.484375 C 2.296875 -0.78125 1.9375 0.96875 0.703125 2.21875 C 0.5625 2.34375 0.5625 2.359375 0.5625 2.390625 C 0.5625 2.453125 0.609375 2.484375 0.671875 2.484375 C 0.765625 2.484375 1.65625 1.8125 2.25 0.546875 C 2.75 -0.546875 2.875 -1.65625 2.875 -2.484375 Z M 2.875 -2.484375 "/>
</symbol>
<symbol overflow="visible" id="glyph2-0">
<path style="stroke:none;" d=""/>
</symbol>
<symbol overflow="visible" id="glyph2-1">
<path style="stroke:none;" d="M 6.5625 -2.296875 C 6.734375 -2.296875 6.90625 -2.296875 6.90625 -2.484375 C 6.90625 -2.6875 6.734375 -2.6875 6.5625 -2.6875 L 1.171875 -2.6875 C 1 -2.6875 0.828125 -2.6875 0.828125 -2.484375 C 0.828125 -2.296875 1 -2.296875 1.171875 -2.296875 Z M 6.5625 -2.296875 "/>
</symbol>
<symbol overflow="visible" id="glyph3-0">
<path style="stroke:none;" d=""/>
</symbol>
<symbol overflow="visible" id="glyph3-1">
<path style="stroke:none;" d="M 5.125 17.390625 C 5.140625 17.40625 5.234375 17.5 5.25 17.5 L 5.46875 17.5 C 5.5 17.5 5.578125 17.5 5.578125 17.40625 C 5.578125 17.375 5.546875 17.34375 5.53125 17.3125 C 5.171875 16.953125 4.640625 16.40625 4.015625 15.3125 C 2.953125 13.40625 2.546875 10.953125 2.546875 8.5625 C 2.546875 4.140625 3.796875 1.546875 5.546875 -0.21875 C 5.578125 -0.25 5.578125 -0.28125 5.578125 -0.296875 C 5.578125 -0.390625 5.5 -0.390625 5.390625 -0.390625 C 5.25 -0.390625 5.234375 -0.390625 5.140625 -0.3125 C 4.203125 0.5 3.140625 1.875 2.453125 3.984375 C 2.015625 5.296875 1.796875 6.890625 1.796875 8.546875 C 1.796875 10.90625 2.21875 13.578125 3.78125 15.890625 C 4.046875 16.265625 4.421875 16.6875 4.421875 16.6875 C 4.515625 16.8125 4.65625 16.96875 4.734375 17.046875 Z M 5.125 17.390625 "/>
</symbol>
<symbol overflow="visible" id="glyph3-2">
<path style="stroke:none;" d="M 4.140625 8.546875 C 4.140625 5.6875 3.46875 2.65625 1.515625 0.421875 C 1.375 0.265625 1 -0.125 0.765625 -0.34375 C 0.703125 -0.390625 0.671875 -0.390625 0.546875 -0.390625 C 0.453125 -0.390625 0.359375 -0.390625 0.359375 -0.296875 C 0.359375 -0.265625 0.390625 -0.21875 0.421875 -0.203125 C 0.75 0.15625 1.296875 0.703125 1.90625 1.796875 C 2.984375 3.703125 3.390625 6.15625 3.390625 8.546875 C 3.390625 12.875 2.1875 15.5 0.390625 17.328125 C 0.375 17.34375 0.359375 17.375 0.359375 17.40625 C 0.359375 17.5 0.453125 17.5 0.546875 17.5 C 0.671875 17.5 0.703125 17.5 0.78125 17.421875 C 1.734375 16.609375 2.796875 15.234375 3.484375 13.125 C 3.921875 11.765625 4.140625 10.15625 4.140625 8.546875 Z M 4.140625 8.546875 "/>
</symbol>
<symbol overflow="visible" id="glyph4-0">
<path style="stroke:none;" d=""/>
</symbol>
<symbol overflow="visible" id="glyph4-1">
<path style="stroke:none;" d="M 3.09375 5.875 L 1.71875 3.15625 C 1.6875 3.09375 1.671875 3.046875 1.609375 3.046875 C 1.578125 3.046875 1.5625 3.046875 1.5 3.09375 L 0.75 3.59375 C 0.65625 3.65625 0.65625 3.6875 0.65625 3.71875 C 0.65625 3.75 0.6875 3.8125 0.75 3.8125 C 0.78125 3.8125 0.796875 3.8125 0.890625 3.75 C 0.96875 3.6875 1.15625 3.546875 1.25 3.5 L 2.78125 6.515625 C 2.828125 6.609375 2.84375 6.625 2.9375 6.625 C 3 6.625 3.078125 6.625 3.140625 6.5 L 6.640625 -0.03125 C 6.703125 -0.125 6.703125 -0.125 6.703125 -0.171875 C 6.703125 -0.28125 6.609375 -0.34375 6.53125 -0.34375 C 6.4375 -0.34375 6.390625 -0.28125 6.359375 -0.1875 Z M 3.09375 5.875 "/>
</symbol>
<symbol overflow="visible" id="glyph4-2">
<path style="stroke:none;" d="M 2.015625 -3.296875 C 2.078125 -3.40625 2.078125 -3.46875 2.078125 -3.515625 C 2.078125 -3.734375 1.890625 -3.890625 1.671875 -3.890625 C 1.40625 -3.890625 1.328125 -3.671875 1.296875 -3.5625 L 0.375 -0.546875 C 0.359375 -0.53125 0.328125 -0.453125 0.328125 -0.4375 C 0.328125 -0.359375 0.546875 -0.28125 0.609375 -0.28125 C 0.65625 -0.28125 0.65625 -0.296875 0.703125 -0.40625 Z M 2.015625 -3.296875 "/>
</symbol>
<symbol overflow="visible" id="glyph5-0">
<path style="stroke:none;" d=""/>
</symbol>
<symbol overflow="visible" id="glyph5-1">
<path style="stroke:none;" d="M 1.90625 -2.328125 C 2.453125 -2.328125 2.84375 -1.953125 2.84375 -1.203125 C 2.84375 -0.34375 2.328125 -0.078125 1.9375 -0.078125 C 1.65625 -0.078125 1.03125 -0.15625 0.75 -0.578125 C 1.078125 -0.578125 1.15625 -0.8125 1.15625 -0.96875 C 1.15625 -1.1875 0.984375 -1.34375 0.765625 -1.34375 C 0.578125 -1.34375 0.375 -1.21875 0.375 -0.9375 C 0.375 -0.28125 1.09375 0.140625 1.9375 0.140625 C 2.90625 0.140625 3.578125 -0.515625 3.578125 -1.203125 C 3.578125 -1.75 3.140625 -2.296875 2.375 -2.453125 C 3.09375 -2.71875 3.359375 -3.234375 3.359375 -3.671875 C 3.359375 -4.21875 2.734375 -4.625 1.953125 -4.625 C 1.1875 -4.625 0.59375 -4.25 0.59375 -3.6875 C 0.59375 -3.453125 0.75 -3.328125 0.953125 -3.328125 C 1.171875 -3.328125 1.3125 -3.484375 1.3125 -3.671875 C 1.3125 -3.875 1.171875 -4.03125 0.953125 -4.046875 C 1.203125 -4.34375 1.671875 -4.421875 1.9375 -4.421875 C 2.25 -4.421875 2.6875 -4.265625 2.6875 -3.671875 C 2.6875 -3.375 2.59375 -3.046875 2.40625 -2.84375 C 2.1875 -2.578125 1.984375 -2.5625 1.640625 -2.53125 C 1.46875 -2.515625 1.453125 -2.515625 1.421875 -2.515625 C 1.40625 -2.515625 1.34375 -2.5 1.34375 -2.421875 C 1.34375 -2.328125 1.40625 -2.328125 1.53125 -2.328125 Z M 1.90625 -2.328125 "/>
</symbol>
<symbol overflow="visible" id="glyph5-2">
<path style="stroke:none;" d="M 3.515625 -1.265625 L 3.28125 -1.265625 C 3.265625 -1.109375 3.1875 -0.703125 3.09375 -0.640625 C 3.046875 -0.59375 2.515625 -0.59375 2.40625 -0.59375 L 1.125 -0.59375 C 1.859375 -1.234375 2.109375 -1.4375 2.515625 -1.765625 C 3.03125 -2.171875 3.515625 -2.609375 3.515625 -3.265625 C 3.515625 -4.109375 2.78125 -4.625 1.890625 -4.625 C 1.03125 -4.625 0.4375 -4.015625 0.4375 -3.375 C 0.4375 -3.03125 0.734375 -2.984375 0.8125 -2.984375 C 0.96875 -2.984375 1.171875 -3.109375 1.171875 -3.359375 C 1.171875 -3.484375 1.125 -3.734375 0.765625 -3.734375 C 0.984375 -4.21875 1.453125 -4.375 1.78125 -4.375 C 2.484375 -4.375 2.84375 -3.828125 2.84375 -3.265625 C 2.84375 -2.65625 2.40625 -2.1875 2.1875 -1.9375 L 0.515625 -0.265625 C 0.4375 -0.203125 0.4375 -0.1875 0.4375 0 L 3.3125 0 Z M 3.515625 -1.265625 "/>
</symbol>
<symbol overflow="visible" id="glyph5-3">
<path style="stroke:none;" d="M 2.328125 -4.4375 C 2.328125 -4.625 2.328125 -4.625 2.125 -4.625 C 1.671875 -4.1875 1.046875 -4.1875 0.765625 -4.1875 L 0.765625 -3.9375 C 0.921875 -3.9375 1.390625 -3.9375 1.765625 -4.125 L 1.765625 -0.578125 C 1.765625 -0.34375 1.765625 -0.25 1.078125 -0.25 L 0.8125 -0.25 L 0.8125 0 C 0.9375 0 1.796875 -0.03125 2.046875 -0.03125 C 2.265625 -0.03125 3.140625 0 3.296875 0 L 3.296875 -0.25 L 3.03125 -0.25 C 2.328125 -0.25 2.328125 -0.34375 2.328125 -0.578125 Z M 2.328125 -4.4375 "/>
</symbol>
<symbol overflow="visible" id="glyph6-0">
<path style="stroke:none;" d=""/>
</symbol>
<symbol overflow="visible" id="glyph6-1">
<path style="stroke:none;" d="M 4.390625 -2.109375 C 4.390625 -3.4375 3.59375 -3.953125 2.828125 -3.953125 C 1.609375 -3.953125 0.390625 -2.71875 0.390625 -1.4375 C 0.390625 -0.515625 1.015625 0.09375 1.875 0.09375 C 2.84375 0.09375 3.578125 -0.46875 3.8125 -0.65625 C 3.9375 -0.203125 4.21875 0.09375 4.671875 0.09375 C 5.140625 0.09375 5.4375 -0.375 5.4375 -0.53125 C 5.4375 -0.640625 5.34375 -0.640625 5.3125 -0.640625 C 5.21875 -0.640625 5.203125 -0.59375 5.1875 -0.515625 C 5.078125 -0.265625 4.859375 -0.125 4.6875 -0.125 C 4.40625 -0.125 4.40625 -0.921875 4.40625 -1.09375 C 4.40625 -1.21875 4.40625 -1.234375 4.484375 -1.328125 C 4.640625 -1.515625 4.875 -1.828125 5.109375 -2.296875 C 5.375 -2.8125 5.53125 -3.359375 5.53125 -3.421875 C 5.53125 -3.421875 5.53125 -3.515625 5.40625 -3.515625 C 5.296875 -3.515625 5.296875 -3.484375 5.25 -3.34375 C 5.171875 -3.03125 4.953125 -2.359375 4.390625 -1.609375 Z M 3.765625 -0.90625 C 3.546875 -0.71875 2.8125 -0.125 1.90625 -0.125 C 1.40625 -0.125 1.078125 -0.453125 1.078125 -1.09375 C 1.078125 -1.484375 1.25 -2.375 1.609375 -2.953125 C 1.828125 -3.3125 2.3125 -3.734375 2.828125 -3.734375 C 3.421875 -3.734375 3.625 -3.203125 3.703125 -2.65625 C 3.78125 -2.171875 3.71875 -1.3125 3.765625 -0.90625 Z M 3.765625 -0.90625 "/>
</symbol>
<symbol overflow="visible" id="glyph7-0">
<path style="stroke:none;" d=""/>
</symbol>
<symbol overflow="visible" id="glyph7-1">
<path style="stroke:none;" d="M 6.34375 -2.96875 C 6.46875 -2.96875 6.640625 -2.96875 6.640625 -3.15625 C 6.640625 -3.34375 6.4375 -3.34375 6.296875 -3.34375 L 0.84375 -3.34375 C 0.703125 -3.34375 0.515625 -3.34375 0.515625 -3.15625 C 0.515625 -2.96875 0.6875 -2.96875 0.8125 -2.96875 Z M 6.296875 -1.140625 C 6.4375 -1.140625 6.640625 -1.140625 6.640625 -1.328125 C 6.640625 -1.515625 6.46875 -1.515625 6.34375 -1.515625 L 0.8125 -1.515625 C 0.6875 -1.515625 0.515625 -1.515625 0.515625 -1.328125 C 0.515625 -1.140625 0.703125 -1.140625 0.84375 -1.140625 Z M 6.296875 -1.140625 "/>
</symbol>
<symbol overflow="visible" id="glyph7-2">
<path style="stroke:none;" d="M 1.203125 -2.96875 C 1.203125 -3.875 1.296875 -4.390625 1.546875 -4.859375 C 1.71875 -5.21875 2.15625 -5.734375 2.8125 -5.734375 C 3 -5.734375 3.40625 -5.703125 3.609375 -5.375 C 3.28125 -5.375 3.140625 -5.203125 3.140625 -4.96875 C 3.140625 -4.734375 3.296875 -4.5625 3.546875 -4.5625 C 3.8125 -4.5625 3.96875 -4.71875 3.96875 -4.984375 C 3.96875 -5.484375 3.609375 -5.96875 2.796875 -5.96875 C 1.640625 -5.96875 0.390625 -4.828125 0.390625 -2.828125 C 0.390625 -0.40625 1.484375 0.203125 2.3125 0.203125 C 3.3125 0.203125 4.203125 -0.640625 4.203125 -1.8125 C 4.203125 -2.953125 3.390625 -3.8125 2.375 -3.8125 C 1.828125 -3.8125 1.453125 -3.5 1.203125 -2.96875 Z M 2.3125 -0.046875 C 1.796875 -0.046875 1.5 -0.46875 1.390625 -0.734375 C 1.234375 -1.140625 1.21875 -1.875 1.21875 -2.015625 C 1.21875 -2.625 1.5 -3.59375 2.359375 -3.59375 C 2.5 -3.59375 2.9375 -3.59375 3.21875 -3.03125 C 3.390625 -2.6875 3.390625 -2.25 3.390625 -1.828125 C 3.390625 -1.390625 3.390625 -0.953125 3.21875 -0.625 C 2.953125 -0.109375 2.546875 -0.046875 2.3125 -0.046875 Z M 2.3125 -0.046875 "/>
</symbol>
<symbol overflow="visible" id="glyph7-3">
<path style="stroke:none;" d="M 4.234375 -2.859375 C 4.234375 -3.46875 4.203125 -4.234375 3.890625 -4.90625 C 3.5 -5.75 2.8125 -5.96875 2.296875 -5.96875 C 1.765625 -5.96875 1.078125 -5.75 0.6875 -4.890625 C 0.40625 -4.265625 0.359375 -3.546875 0.359375 -2.859375 C 0.359375 -2.28125 0.375 -1.421875 0.765625 -0.703125 C 1.1875 0.046875 1.875 0.203125 2.296875 0.203125 C 2.875 0.203125 3.53125 -0.046875 3.90625 -0.875 C 4.1875 -1.484375 4.234375 -2.15625 4.234375 -2.859375 Z M 2.296875 -0.03125 C 2.03125 -0.03125 1.390625 -0.15625 1.21875 -1.15625 C 1.125 -1.6875 1.125 -2.46875 1.125 -2.96875 C 1.125 -3.578125 1.125 -4.28125 1.234375 -4.78125 C 1.421875 -5.578125 1.984375 -5.734375 2.296875 -5.734375 C 2.625 -5.734375 3.203125 -5.5625 3.359375 -4.734375 C 3.46875 -4.234375 3.46875 -3.53125 3.46875 -2.96875 C 3.46875 -2.421875 3.46875 -1.671875 3.375 -1.140625 C 3.1875 -0.109375 2.53125 -0.03125 2.296875 -0.03125 Z M 2.296875 -0.03125 "/>
</symbol>
<symbol overflow="visible" id="glyph8-0">
<path style="stroke:none;" d=""/>
</symbol>
<symbol overflow="visible" id="glyph8-1">
<path style="stroke:none;" d="M 3.25 -1.5 C 3.25 -2.25 2.640625 -2.84375 1.90625 -2.84375 C 1.15625 -2.84375 0.5625 -2.25 0.5625 -1.5 C 0.5625 -0.734375 1.15625 -0.140625 1.90625 -0.140625 C 2.640625 -0.140625 3.25 -0.734375 3.25 -1.5 Z M 1.90625 -0.453125 C 1.328125 -0.453125 0.859375 -0.90625 0.859375 -1.5 C 0.859375 -2.078125 1.328125 -2.53125 1.90625 -2.53125 C 2.484375 -2.53125 2.9375 -2.078125 2.9375 -1.5 C 2.9375 -0.90625 2.484375 -0.453125 1.90625 -0.453125 Z M 1.90625 -0.453125 "/>
</symbol>
</g>
</defs>
<g id="surface1">
<path style="fill:none;stroke-width:0.3985;stroke-linecap:butt;stroke-linejoin:miter;stroke:rgb(0%,0%,0%);stroke-opacity:1;stroke-miterlimit:10;" d="M -81.638731 0.000842967 L 81.453107 0.000842967 " transform="matrix(0.999078,0,0,-0.999078,119.122023,100.05553)"/>
<path style=" stroke:none;fill-rule:nonzero;fill:rgb(0%,0%,0%);fill-opacity:1;" d="M 204.082031 100.054688 C 203.023438 99.855469 201.296875 99.257812 200.101562 98.5625 L 200.101562 101.546875 C 201.296875 100.851562 203.023438 100.253906 204.082031 100.054688 "/>
<g style="fill:rgb(0%,0%,0%);fill-opacity:1;">
  <use xlink:href="#glyph0-1" x="207.599339" y="102.198551"/>
</g>
<path style="fill:none;stroke-width:0.3985;stroke-linecap:butt;stroke-linejoin:miter;stroke:rgb(0%,0%,0%);stroke-opacity:1;stroke-miterlimit:10;" d="M -0.00093056 -81.636958 L -0.00093056 81.45488 " transform="matrix(0.999078,0,0,-0.999078,119.122023,100.05553)"/>
<path style=" stroke:none;fill-rule:nonzero;fill:rgb(0%,0%,0%);fill-opacity:1;" d="M 119.121094 15.09375 C 118.921875 16.15625 118.324219 17.878906 117.628906 19.074219 L 120.613281 19.074219 C 119.917969 17.878906 119.320312 16.15625 119.121094 15.09375 "/>
<g style="fill:rgb(0%,0%,0%);fill-opacity:1;">
  <use xlink:href="#glyph0-2" x="116.503441" y="9.643001"/>
</g>
<path style="fill:none;stroke-width:0.79701;stroke-linecap:butt;stroke-linejoin:miter;stroke:rgb(0%,0%,0%);stroke-opacity:1;stroke-miterlimit:10;" d="M 68.03057 0.000842967 C 68.03057 37.574563 37.572789 68.032343 -0.00093056 68.032343 C -37.57465 68.032343 -68.032431 37.574563 -68.032431 0.000842967 C -68.032431 -37.572877 -37.57465 -68.030658 -0.00093056 -68.030658 C 37.572789 -68.030658 68.03057 -37.572877 68.03057 0.000842967 Z M 68.03057 0.000842967 " transform="matrix(0.999078,0,0,-0.999078,119.122023,100.05553)"/>
<g style="fill:rgb(0%,0%,0%);fill-opacity:1;">
  <use xlink:href="#glyph1-1" x="188.583894" y="109.986361"/>
</g>
<g style="fill:rgb(0%,0%,0%);fill-opacity:1;">
  <use xlink:href="#glyph2-1" x="34.918762" y="109.986361"/>
</g>
<g style="fill:rgb(0%,0%,0%);fill-opacity:1;">
  <use xlink:href="#glyph1-1" x="42.660615" y="109.986361"/>
</g>
<g style="fill:rgb(0%,0%,0%);fill-opacity:1;">
  <use xlink:href="#glyph1-1" x="110.628865" y="29.321833"/>
</g>
<g style="fill:rgb(0%,0%,0%);fill-opacity:1;">
  <use xlink:href="#glyph2-1" x="102.887012" y="176.788688"/>
</g>
<g style="fill:rgb(0%,0%,0%);fill-opacity:1;">
  <use xlink:href="#glyph1-1" x="110.628865" y="176.788688"/>
</g>
<path style="fill:none;stroke-width:0.79701;stroke-linecap:butt;stroke-linejoin:miter;stroke:rgb(0%,0%,0%);stroke-opacity:1;stroke-miterlimit:10;" d="M -58.918556 34.016593 L -0.00093056 0.000842967 L 34.01873 -58.916782 " transform="matrix(0.999078,0,0,-0.999078,119.122023,100.05553)"/>
<path style="fill:none;stroke-width:0.79701;stroke-linecap:butt;stroke-linejoin:miter;stroke:rgb(0%,0%,0%);stroke-opacity:1;stroke-miterlimit:10;" d="M -58.918556 34.016593 L -58.918556 0.000842967 " transform="matrix(0.999078,0,0,-0.999078,119.122023,100.05553)"/>
<path style=" stroke:none;fill-rule:nonzero;fill:rgb(0%,0%,0%);fill-opacity:1;" d="M 61.691406 66.070312 C 61.691406 65.277344 61.050781 64.636719 60.257812 64.636719 C 59.464844 64.636719 58.824219 65.277344 58.824219 66.070312 C 58.824219 66.859375 59.464844 67.503906 60.257812 67.503906 C 61.050781 67.503906 61.691406 66.859375 61.691406 66.070312 Z M 61.691406 66.070312 "/>
<path style=" stroke:none;fill-rule:nonzero;fill:rgb(0%,0%,0%);fill-opacity:1;" d="M 61.691406 100.054688 C 61.691406 99.265625 61.050781 98.621094 60.257812 98.621094 C 59.464844 98.621094 58.824219 99.265625 58.824219 100.054688 C 58.824219 100.847656 59.464844 101.488281 60.257812 101.488281 C 61.050781 101.488281 61.691406 100.847656 61.691406 100.054688 Z M 61.691406 100.054688 "/>
<path style=" stroke:none;fill-rule:nonzero;fill:rgb(0%,0%,0%);fill-opacity:1;" d="M 154.542969 158.917969 C 154.542969 158.128906 153.898438 157.484375 153.109375 157.484375 C 152.316406 157.484375 151.675781 158.128906 151.675781 158.917969 C 151.675781 159.710938 152.316406 160.351562 153.109375 160.351562 C 153.898438 160.351562 154.542969 159.710938 154.542969 158.917969 Z M 154.542969 158.917969 "/>
<g style="fill:rgb(0%,0%,0%);fill-opacity:1;">
  <use xlink:href="#glyph0-3" x="5.308099" y="57.078207"/>
</g>
<g style="fill:rgb(0%,0%,0%);fill-opacity:1;">
  <use xlink:href="#glyph3-1" x="12.773207" y="46.030407"/>
</g>
<g style="fill:rgb(0%,0%,0%);fill-opacity:1;">
  <use xlink:href="#glyph2-1" x="18.717719" y="57.078207"/>
</g>
<g style="fill:rgb(0%,0%,0%);fill-opacity:1;">
  <use xlink:href="#glyph4-1" x="27.65347" y="47.364176"/>
</g>
<path style="fill:none;stroke-width:0.339;stroke-linecap:butt;stroke-linejoin:miter;stroke:rgb(0%,0%,0%);stroke-opacity:1;stroke-miterlimit:10;" d="M -0.00102736 0.0000191158 L 3.971387 0.0000191158 " transform="matrix(0.999078,0,0,-0.999078,34.192433,47.195332)"/>
<g style="fill:rgb(0%,0%,0%);fill-opacity:1;">
  <use xlink:href="#glyph5-1" x="34.192433" y="53.134848"/>
</g>
<path style="fill:none;stroke-width:0.398;stroke-linecap:butt;stroke-linejoin:miter;stroke:rgb(0%,0%,0%);stroke-opacity:1;stroke-miterlimit:10;" d="M -0.00112689 0.000661042 L 10.516387 0.000661042 " transform="matrix(0.999078,0,0,-0.999078,27.65347,54.590504)"/>
<g style="fill:rgb(0%,0%,0%);fill-opacity:1;">
  <use xlink:href="#glyph5-2" x="30.923451" y="60.511038"/>
</g>
<g style="fill:rgb(0%,0%,0%);fill-opacity:1;">
  <use xlink:href="#glyph0-4" x="39.354667" y="57.078207"/>
</g>
<g style="fill:rgb(0%,0%,0%);fill-opacity:1;">
  <use xlink:href="#glyph5-3" x="46.631948" y="53.159825"/>
</g>
<path style="fill:none;stroke-width:0.398;stroke-linecap:butt;stroke-linejoin:miter;stroke:rgb(0%,0%,0%);stroke-opacity:1;stroke-miterlimit:10;" d="M 0.000865124 0.000661042 L 3.969369 0.000661042 " transform="matrix(0.999078,0,0,-0.999078,46.631948,54.590504)"/>
<g style="fill:rgb(0%,0%,0%);fill-opacity:1;">
  <use xlink:href="#glyph5-2" x="46.631948" y="60.511038"/>
</g>
<g style="fill:rgb(0%,0%,0%);fill-opacity:1;">
  <use xlink:href="#glyph3-2" x="51.793183" y="46.030407"/>
</g>
<g style="fill:rgb(0%,0%,0%);fill-opacity:1;">
  <use xlink:href="#glyph0-3" x="63.775121" y="96.538776"/>
</g>
<g style="fill:rgb(0%,0%,0%);fill-opacity:1;">
  <use xlink:href="#glyph4-2" x="71.240229" y="92.927111"/>
</g>
<g style="fill:rgb(0%,0%,0%);fill-opacity:1;">
  <use xlink:href="#glyph1-2" x="110.628865" y="109.986361"/>
</g>
<g style="fill:rgb(0%,0%,0%);fill-opacity:1;">
  <use xlink:href="#glyph0-5" x="126.037639" y="96.42688"/>
</g>
<g style="fill:rgb(0%,0%,0%);fill-opacity:1;">
  <use xlink:href="#glyph1-3" x="133.863414" y="96.42688"/>
  <use xlink:href="#glyph1-2" x="137.734295" y="96.42688"/>
</g>
<g style="fill:rgb(0%,0%,0%);fill-opacity:1;">
  <use xlink:href="#glyph0-4" x="142.711245" y="96.42688"/>
</g>
<g style="fill:rgb(0%,0%,0%);fill-opacity:1;">
  <use xlink:href="#glyph1-2" x="147.134162" y="96.42688"/>
  <use xlink:href="#glyph1-4" x="152.110867" y="96.42688"/>
</g>
<g style="fill:rgb(0%,0%,0%);fill-opacity:1;">
  <use xlink:href="#glyph0-6" x="156.6244" y="169.900047"/>
</g>
<g style="fill:rgb(0%,0%,0%);fill-opacity:1;">
  <use xlink:href="#glyph1-3" x="164.673969" y="169.900047"/>
</g>
<g style="fill:rgb(0%,0%,0%);fill-opacity:1;">
  <use xlink:href="#glyph0-1" x="168.544395" y="169.900047"/>
</g>
<g style="fill:rgb(0%,0%,0%);fill-opacity:1;">
  <use xlink:href="#glyph5-3" x="174.233143" y="171.393668"/>
</g>
<g style="fill:rgb(0%,0%,0%);fill-opacity:1;">
  <use xlink:href="#glyph0-4" x="178.698021" y="169.900047"/>
</g>
<g style="fill:rgb(0%,0%,0%);fill-opacity:1;">
  <use xlink:href="#glyph0-2" x="184.777565" y="169.900047"/>
</g>
<g style="fill:rgb(0%,0%,0%);fill-opacity:1;">
  <use xlink:href="#glyph5-3" x="189.6609" y="171.393668"/>
</g>
<g style="fill:rgb(0%,0%,0%);fill-opacity:1;">
  <use xlink:href="#glyph1-4" x="194.126777" y="169.900047"/>
</g>
<g style="fill:rgb(0%,0%,0%);fill-opacity:1;">
  <use xlink:href="#glyph6-1" x="136.232227" y="115.616164"/>
</g>
<g style="fill:rgb(0%,0%,0%);fill-opacity:1;">
  <use xlink:href="#glyph7-1" x="143.162828" y="115.616164"/>
</g>
<g style="fill:rgb(0%,0%,0%);fill-opacity:1;">
  <use xlink:href="#glyph7-2" x="151.345184" y="115.616164"/>
  <use xlink:href="#glyph7-3" x="155.948767" y="115.616164"/>
</g>
<g style="fill:rgb(0%,0%,0%);fill-opacity:1;">
  <use xlink:href="#glyph8-1" x="160.553773" y="111.810677"/>
</g>
<path style="fill:none;stroke-width:0.3985;stroke-linecap:butt;stroke-linejoin:miter;stroke:rgb(0%,0%,0%);stroke-opacity:1;stroke-miterlimit:10;" d="M 10.192065 -10.481482 C 11.470588 -9.742519 14.172299 -5.062421 14.172299 -3.588405 " transform="matrix(0.999078,0,0,-0.999078,119.122023,100.05553)"/>
<path style=" stroke:none;fill-rule:nonzero;fill:rgb(0%,0%,0%);fill-opacity:1;" d="M 126.203125 112.320312 C 127.222656 111.960938 129.015625 111.613281 130.398438 111.621094 L 128.902344 109.035156 C 128.21875 110.234375 127.023438 111.617188 126.203125 112.320312 "/>
<path style=" stroke:none;fill-rule:nonzero;fill:rgb(0%,0%,0%);fill-opacity:1;" d="M 133.28125 100.054688 C 133.082031 101.117188 132.484375 102.84375 131.789062 104.035156 L 134.773438 104.035156 C 134.078125 102.84375 133.480469 101.117188 133.28125 100.054688 "/>
</g>
</svg>
